<svg width="13" height="9" viewBox="0 0 13 9" fill="none" xmlns="http://www.w3.org/2000/svg">
<g id="Frame">
<path id="Vector" fill-rule="evenodd" clip-rule="evenodd" d="M12.1613 1.44348C12.101 1.38302 12.0293 1.33505 11.9504 1.30232C11.8716 1.26959 11.787 1.25275 11.7016 1.25275C11.6162 1.25275 11.5317 1.26959 11.4528 1.30232C11.3739 1.33505 11.3023 1.38302 11.242 1.44348L6.50786 6.17889L1.77375 1.44348C1.65184 1.32157 1.4865 1.25309 1.3141 1.25309C1.1417 1.25309 0.976361 1.32157 0.854455 1.44348C0.732549 1.56539 0.664063 1.73073 0.664062 1.90313C0.664063 2.07553 0.732549 2.24087 0.854455 2.36277L6.04821 7.55653C6.10852 7.61699 6.18016 7.66496 6.25904 7.69769C6.33791 7.73042 6.42247 7.74727 6.50786 7.74727C6.59326 7.74727 6.67781 7.73042 6.75669 7.69769C6.83556 7.66496 6.9072 7.61699 6.96751 7.55653L12.1613 2.36277C12.2217 2.30247 12.2697 2.23083 12.3024 2.15195C12.3352 2.07308 12.352 1.98852 12.352 1.90313C12.352 1.81773 12.3352 1.73318 12.3024 1.6543C12.2697 1.57543 12.2217 1.50379 12.1613 1.44348Z" fill="#11181F"/>
</g>
</svg>
